<svg width="184" height="184" viewBox="0 0 184 184" fill="none" xmlns="http://www.w3.org/2000/svg">
<rect y="92" width="130" height="130" transform="rotate(-45 0 92)" fill="#000080"/>
<line x1="38" y1="92.5" x2="145" y2="92.5" stroke="#F49F1C" stroke-width="7"/>
<path d="M41.424 70.344C41.424 70.568 41.536 70.744 41.76 70.872C41.9947 71 42.3573 71.1387 42.848 71.288C43.4347 71.48 43.9147 71.6667 44.288 71.848C44.672 72.0293 45.0027 72.312 45.28 72.696C45.568 73.08 45.712 73.5813 45.712 74.2C45.712 76.184 44.4213 77.176 41.84 77.176C41.4133 77.176 40.8907 77.1387 40.272 77.064C39.664 76.9893 39.1093 76.8933 38.608 76.776C38.6293 76.552 38.672 76.2267 38.736 75.8C38.8107 75.3627 38.88 75.0373 38.944 74.824C39.3173 74.8773 39.8773 74.9413 40.624 75.016C41.3813 75.0907 41.952 75.128 42.336 75.128C42.56 75.128 42.6933 75.112 42.736 75.08C42.8 75.0373 42.848 74.968 42.88 74.872C42.9227 74.7653 42.944 74.6747 42.944 74.6C42.944 74.3867 42.8427 74.2267 42.64 74.12C42.4373 74.0027 42.0907 73.864 41.6 73.704C41.0133 73.5227 40.528 73.336 40.144 73.144C39.76 72.952 39.424 72.6533 39.136 72.248C38.848 71.8427 38.704 71.3093 38.704 70.648C38.704 70.1787 38.8107 69.72 39.024 69.272C39.2373 68.8133 39.456 68.504 39.68 68.344C39.8507 68.2267 40.2027 68.1147 40.736 68.008C41.2693 67.9013 41.7707 67.848 42.24 67.848C43.4347 67.848 44.4107 67.96 45.168 68.184C45.1573 68.3973 45.12 68.6907 45.056 69.064C45.0027 69.4373 44.944 69.7787 44.88 70.088L44.512 70.072C43.1253 69.976 42.24 69.928 41.856 69.928C41.696 69.928 41.6053 69.9333 41.584 69.944C41.5413 69.9653 41.504 70.0133 41.472 70.088C41.44 70.1627 41.424 70.248 41.424 70.344ZM51.6309 77H48.7509V69.88H46.1749V67.88H54.2069V69.88H51.6309V77ZM63.4321 77H60.4081L59.8641 74.696C59.8428 74.6107 59.8055 74.4667 59.7521 74.264C59.7095 74.0507 59.6561 73.896 59.5921 73.8C59.5281 73.6933 59.4375 73.624 59.3201 73.592C59.0215 73.6027 58.5841 73.608 58.0081 73.608V77H55.1281V67.96C56.4188 67.864 57.6241 67.816 58.7441 67.816C59.7575 67.816 60.5788 67.9013 61.2081 68.072C61.8375 68.232 62.3068 68.5147 62.6161 68.92C62.9361 69.3147 63.0961 69.8587 63.0961 70.552C63.0961 71.2027 62.9468 71.7147 62.6481 72.088C62.3495 72.4507 61.8695 72.6693 61.2081 72.744V72.84C61.5815 72.872 61.8908 72.9947 62.1361 73.208C62.3921 73.4107 62.5628 73.672 62.6481 73.992L63.4321 77ZM58.0081 71.8C58.1041 71.8107 58.2908 71.816 58.5681 71.816C59.3895 71.816 59.8695 71.7467 60.0081 71.608C60.1361 71.48 60.2001 71.1813 60.2001 70.712C60.2001 70.2747 60.0828 69.976 59.8481 69.816C59.6241 69.656 59.2508 69.576 58.7281 69.576C58.6108 69.576 58.3708 69.5867 58.0081 69.608V71.8ZM69.6894 75H67.0334L66.5534 77H63.6094L66.5534 67.88H70.3134L73.1294 77H70.1694L69.6894 75ZM68.3454 69.848L67.4014 73.224H69.3054L68.4094 69.848H68.3454ZM73.941 67.88H76.821V77H73.941V67.88ZM86.4086 71.944V76.504C85.694 76.7387 85.0166 76.9093 84.3766 77.016C83.7366 77.1227 83.198 77.176 82.7606 77.176C81.31 77.176 80.174 76.7973 79.3526 76.04C78.5313 75.2827 78.1206 74.12 78.1206 72.552C78.1206 70.952 78.5526 69.7573 79.4166 68.968C80.2806 68.168 81.4966 67.768 83.0646 67.768C83.886 67.768 84.8726 67.8907 86.0246 68.136C86.0246 68.3493 86.0033 68.6693 85.9606 69.096C85.918 69.512 85.8753 69.8053 85.8326 69.976L85.2566 69.96C84.5526 69.9387 84.0033 69.928 83.6086 69.928C82.4246 69.928 81.7793 69.9973 81.6726 70.136C81.502 70.3387 81.3793 70.6533 81.3046 71.08C81.2406 71.5067 81.2086 71.9173 81.2086 72.312C81.2086 73.0267 81.2886 73.5813 81.4486 73.976C81.6086 74.3707 81.854 74.648 82.1846 74.808C82.5153 74.968 82.9633 75.048 83.5286 75.048H83.5926V71.944H86.4086ZM87.7848 67.88H90.6808V71.224H93.1608V67.88H96.0568V77H93.1608V73.064H90.6808V77H87.7848V67.88ZM102.459 77H99.579V69.88H97.003V67.88H105.035V69.88H102.459V77ZM112.043 67.832C112.907 67.832 113.637 67.912 114.235 68.072C114.832 68.232 115.307 68.5413 115.659 69C116.021 69.448 116.203 70.0933 116.203 70.936C116.203 71.3093 116.144 71.6933 116.027 72.088C115.92 72.472 115.781 72.808 115.611 73.096C115.451 73.384 115.307 73.5707 115.179 73.656C115.029 73.7627 114.699 73.848 114.187 73.912C113.675 73.9653 113.072 73.992 112.379 73.992C112.133 73.992 111.755 73.9813 111.243 73.96V77H108.363V67.88C109.483 67.848 110.709 67.832 112.043 67.832ZM113.243 71.944C113.349 71.8053 113.403 71.528 113.403 71.112C113.403 70.568 113.285 70.184 113.051 69.96C112.827 69.736 112.432 69.624 111.867 69.624C111.675 69.624 111.467 69.64 111.243 69.672V72.104C111.349 72.1147 111.557 72.12 111.867 72.12C112.688 72.12 113.147 72.0613 113.243 71.944ZM121.67 77.208C120.081 77.208 118.886 76.8347 118.086 76.088C117.297 75.3307 116.902 74.12 116.902 72.456C116.902 70.824 117.339 69.6347 118.214 68.888C119.089 68.1413 120.246 67.768 121.686 67.768C124.715 67.768 126.23 69.2773 126.23 72.296C126.23 73.8213 125.857 75.0213 125.11 75.896C124.374 76.7707 123.227 77.208 121.67 77.208ZM121.606 75.32C121.905 75.32 122.155 75.272 122.358 75.176C122.561 75.0693 122.721 74.888 122.838 74.632C123.062 74.1947 123.174 73.48 123.174 72.488C123.174 71.5173 123.062 70.8133 122.838 70.376C122.614 69.928 122.203 69.6933 121.606 69.672C121.382 69.672 121.147 69.6987 120.902 69.752C120.667 69.7947 120.518 69.8587 120.454 69.944C120.326 70.0933 120.225 70.4133 120.15 70.904C120.086 71.384 120.054 71.912 120.054 72.488C120.054 73.384 120.139 74.04 120.31 74.456C120.427 74.7653 120.593 74.9893 120.806 75.128C121.019 75.256 121.286 75.32 121.606 75.32ZM131.951 77.208C130.362 77.208 129.167 76.8347 128.367 76.088C127.578 75.3307 127.183 74.12 127.183 72.456C127.183 70.824 127.62 69.6347 128.495 68.888C129.37 68.1413 130.527 67.768 131.967 67.768C134.996 67.768 136.511 69.2773 136.511 72.296C136.511 73.8213 136.138 75.0213 135.391 75.896C134.655 76.7707 133.508 77.208 131.951 77.208ZM131.887 75.32C132.186 75.32 132.436 75.272 132.639 75.176C132.842 75.0693 133.002 74.888 133.119 74.632C133.343 74.1947 133.455 73.48 133.455 72.488C133.455 71.5173 133.343 70.8133 133.119 70.376C132.895 69.928 132.484 69.6933 131.887 69.672C131.663 69.672 131.428 69.6987 131.183 69.752C130.948 69.7947 130.799 69.8587 130.735 69.944C130.607 70.0933 130.506 70.4133 130.431 70.904C130.367 71.384 130.335 71.912 130.335 72.488C130.335 73.384 130.42 74.04 130.591 74.456C130.708 74.7653 130.874 74.9893 131.087 75.128C131.3 75.256 131.567 75.32 131.887 75.32ZM137.752 67.88H140.632V74.888H144.36V77H137.752V67.88Z" fill="#F49F1C"/>
<path d="M50.964 114.772C50.668 114.9 50.324 114.992 49.932 115.048C49.54 115.104 49.176 115.132 48.84 115.132C47.752 115.132 46.9 114.848 46.284 114.28C45.668 113.712 45.36 112.84 45.36 111.664C45.36 110.464 45.684 109.568 46.332 108.976C46.98 108.376 47.892 108.076 49.068 108.076C49.628 108.076 50.212 108.152 50.82 108.304C50.82 108.464 50.804 108.704 50.772 109.024C50.74 109.336 50.708 109.556 50.676 109.684H49.92C49.368 109.684 48.932 109.696 48.612 109.72C48.3 109.736 48.112 109.772 48.048 109.828C47.928 109.94 47.836 110.168 47.772 110.512C47.708 110.848 47.676 111.172 47.676 111.484C47.676 112.028 47.744 112.448 47.88 112.744C48.016 113.032 48.188 113.224 48.396 113.32C48.596 113.416 48.928 113.464 49.392 113.464C49.76 113.464 50.24 113.432 50.832 113.368L50.964 114.772ZM55.7123 113.5H53.7203L53.3603 115H51.1523L53.3603 108.16H56.1803L58.2923 115H56.0723L55.7123 113.5ZM54.7043 109.636L53.9963 112.168H55.4243L54.7523 109.636H54.7043ZM65.1171 115H62.8491L62.4411 113.272C62.4251 113.208 62.3971 113.1 62.3571 112.948C62.3251 112.788 62.2851 112.672 62.2371 112.6C62.1891 112.52 62.1211 112.468 62.0331 112.444C61.8091 112.452 61.4811 112.456 61.0491 112.456V115H58.8891V108.22C59.8571 108.148 60.7611 108.112 61.6011 108.112C62.3611 108.112 62.9771 108.176 63.4491 108.304C63.9211 108.424 64.2731 108.636 64.5051 108.94C64.7451 109.236 64.8651 109.644 64.8651 110.164C64.8651 110.652 64.7531 111.036 64.5291 111.316C64.3051 111.588 63.9451 111.752 63.4491 111.808V111.88C63.7291 111.904 63.9611 111.996 64.1451 112.156C64.3371 112.308 64.4651 112.504 64.5291 112.744L65.1171 115ZM61.0491 111.1C61.1211 111.108 61.2611 111.112 61.4691 111.112C62.0851 111.112 62.4451 111.06 62.5491 110.956C62.6451 110.86 62.6931 110.636 62.6931 110.284C62.6931 109.956 62.6051 109.732 62.4291 109.612C62.2611 109.492 61.9811 109.432 61.5891 109.432C61.5011 109.432 61.3211 109.44 61.0491 109.456V111.1ZM68.25 108.16C69.186 108.16 69.95 108.248 70.542 108.424C71.142 108.6 71.606 108.932 71.934 109.42C72.27 109.908 72.438 110.608 72.438 111.52C72.438 112.496 72.262 113.24 71.91 113.752C71.558 114.256 71.086 114.592 70.494 114.76C69.902 114.92 69.154 115 68.25 115H65.85V108.16H68.25ZM69.858 113.368C69.954 113.272 70.022 113.024 70.062 112.624C70.102 112.224 70.122 111.856 70.122 111.52C70.122 111.096 70.09 110.76 70.026 110.512C69.97 110.256 69.866 110.052 69.714 109.9C69.474 109.636 69.062 109.504 68.478 109.504C68.374 109.504 68.218 109.512 68.01 109.528V113.512C68.146 113.528 68.358 113.536 68.646 113.536C68.942 113.536 69.202 113.524 69.426 113.5C69.658 113.468 69.802 113.424 69.858 113.368ZM77.1811 113.5H75.1891L74.8291 115H72.6211L74.8291 108.16H77.6491L79.7611 115H77.5411L77.1811 113.5ZM76.1731 109.636L75.4651 112.168H76.8931L76.2211 109.636H76.1731ZM82.3618 112.24V115H80.3578V108.16H82.3858L84.1978 110.92C84.4698 111.328 84.6778 111.672 84.8218 111.952H84.8578V110.8V108.16H86.8498V115H84.8098L82.9498 112.12L82.4098 111.304H82.3738L82.3618 112.24ZM91.3696 115.156C90.1776 115.156 89.2816 114.876 88.6816 114.316C88.0896 113.748 87.7936 112.84 87.7936 111.592C87.7936 110.368 88.1216 109.476 88.7776 108.916C89.4336 108.356 90.3016 108.076 91.3816 108.076C93.6536 108.076 94.7896 109.208 94.7896 111.472C94.7896 112.616 94.5096 113.516 93.9496 114.172C93.3976 114.828 92.5376 115.156 91.3696 115.156ZM91.3216 113.74C91.5456 113.74 91.7336 113.704 91.8856 113.632C92.0376 113.552 92.1576 113.416 92.2456 113.224C92.4136 112.896 92.4976 112.36 92.4976 111.616C92.4976 110.888 92.4136 110.36 92.2456 110.032C92.0776 109.696 91.7696 109.52 91.3216 109.504C91.1536 109.504 90.9776 109.524 90.7936 109.564C90.6176 109.596 90.5056 109.644 90.4576 109.708C90.3616 109.82 90.2856 110.06 90.2296 110.428C90.1816 110.788 90.1576 111.184 90.1576 111.616C90.1576 112.288 90.2216 112.78 90.3496 113.092C90.4376 113.324 90.5616 113.492 90.7216 113.596C90.8816 113.692 91.0816 113.74 91.3216 113.74ZM99.5172 110.008C99.5172 110.176 99.6012 110.308 99.7692 110.404C99.9452 110.5 100.217 110.604 100.585 110.716C101.025 110.86 101.385 111 101.665 111.136C101.953 111.272 102.201 111.484 102.409 111.772C102.625 112.06 102.733 112.436 102.733 112.9C102.733 114.388 101.765 115.132 99.8292 115.132C99.5092 115.132 99.1172 115.104 98.6532 115.048C98.1972 114.992 97.7812 114.92 97.4052 114.832C97.4212 114.664 97.4532 114.42 97.5012 114.1C97.5572 113.772 97.6092 113.528 97.6572 113.368C97.9372 113.408 98.3572 113.456 98.9172 113.512C99.4852 113.568 99.9132 113.596 100.201 113.596C100.369 113.596 100.469 113.584 100.501 113.56C100.549 113.528 100.585 113.476 100.609 113.404C100.641 113.324 100.657 113.256 100.657 113.2C100.657 113.04 100.581 112.92 100.429 112.84C100.277 112.752 100.017 112.648 99.6492 112.528C99.2092 112.392 98.8452 112.252 98.5572 112.108C98.2692 111.964 98.0172 111.74 97.8012 111.436C97.5852 111.132 97.4772 110.732 97.4772 110.236C97.4772 109.884 97.5572 109.54 97.7172 109.204C97.8772 108.86 98.0412 108.628 98.2092 108.508C98.3372 108.42 98.6012 108.336 99.0012 108.256C99.4012 108.176 99.7772 108.136 100.129 108.136C101.025 108.136 101.757 108.22 102.325 108.388C102.317 108.548 102.289 108.768 102.241 109.048C102.201 109.328 102.157 109.584 102.109 109.816L101.833 109.804C100.793 109.732 100.129 109.696 99.8412 109.696C99.7212 109.696 99.6532 109.7 99.6372 109.708C99.6052 109.724 99.5772 109.76 99.5532 109.816C99.5292 109.872 99.5172 109.936 99.5172 110.008ZM107.172 115H105.012V109.66H103.08V108.16H109.104V109.66H107.172V115ZM113.24 113.5H111.248L110.888 115H108.68L110.888 108.16H113.708L115.82 115H113.6L113.24 113.5ZM112.232 109.636L111.524 112.168H112.952L112.28 109.636H112.232ZM122.8 115H120.436L119.104 112.444C119.08 112.404 119.016 112.292 118.912 112.108C118.816 111.924 118.708 111.748 118.588 111.58V115H116.428V108.16H118.588V111.268C118.724 111.116 118.84 110.952 118.936 110.776C119.04 110.592 119.1 110.484 119.116 110.452L120.4 108.16H122.68L121.312 110.452C121.288 110.484 121.236 110.568 121.156 110.704C121.076 110.84 120.988 110.968 120.892 111.088C120.804 111.2 120.708 111.304 120.604 111.4C120.748 111.536 120.864 111.672 120.952 111.808C121.048 111.936 121.156 112.108 121.276 112.324L122.8 115ZM123.342 108.16H125.502V115H123.342V108.16ZM128.721 112.24V115H126.717V108.16H128.745L130.557 110.92C130.829 111.328 131.037 111.672 131.181 111.952H131.217V110.8V108.16H133.209V115H131.169L129.309 112.12L128.769 111.304H128.733L128.721 112.24ZM140.369 111.208V114.628C139.833 114.804 139.325 114.932 138.845 115.012C138.365 115.092 137.961 115.132 137.633 115.132C136.545 115.132 135.693 114.848 135.077 114.28C134.461 113.712 134.153 112.84 134.153 111.664C134.153 110.464 134.477 109.568 135.125 108.976C135.773 108.376 136.685 108.076 137.861 108.076C138.477 108.076 139.217 108.168 140.081 108.352C140.081 108.512 140.065 108.752 140.033 109.072C140.001 109.384 139.969 109.604 139.937 109.732L139.505 109.72C138.977 109.704 138.565 109.696 138.269 109.696C137.381 109.696 136.897 109.748 136.817 109.852C136.689 110.004 136.597 110.24 136.541 110.56C136.493 110.88 136.469 111.188 136.469 111.484C136.469 112.02 136.529 112.436 136.649 112.732C136.769 113.028 136.953 113.236 137.201 113.356C137.449 113.476 137.785 113.536 138.209 113.536H138.257V111.208H140.369Z" fill="#F49F1C"/>
</svg>
